PathFileType	4	(X/Y/Z)	C:\Users\86182\Documents\cortex\Trimmed_M3_H8.trc
DataRate	CameraRate	NumFrames	NumMarkers	Units	OrigDataRate	OrigDataStartFrame	OrigNumFrames
100.00	100.00	       144	2	mm	100.00	1	       901
Frame#	Time	gripper			box			
		X1	Y1	Z1	X2	Y2	Z2	

1	0.000	268.09702	172.55968	192.28976	268.98813	169.44948	56.77821	
2	0.010	268.09702	172.55968	192.28978	268.98807	169.44942	56.77828	
3	0.020	268.09702	172.55968	192.28978	268.98792	169.44931	56.77847	
4	0.030	268.09702	172.55968	192.28978	268.98776	169.44916	56.77868	
5	0.040	268.09702	172.55968	192.28978	268.98761	169.44904	56.77888	
6	0.050	268.09702	172.55968	192.28978	268.98749	169.44893	56.77904	
7	0.060	268.09702	172.55968	192.28978	268.98740	169.44887	56.77914	
8	0.070	268.09702	172.55968	192.28978	268.98737	169.44884	56.77918	
9	0.080	268.09702	172.55968	192.28978	268.98737	169.44884	56.77916	
10	0.090	268.09702	172.55968	192.28978	268.98743	169.44888	56.77910	
11	0.100	268.09702	172.55968	192.28978	268.98749	169.44896	56.77900	
12	0.110	268.09702	172.55968	192.28978	268.98761	169.44904	56.77886	
13	0.120	268.09702	172.55968	192.28978	268.98770	169.44914	56.77871	
14	0.130	268.09702	172.55968	192.28978	268.98782	169.44922	56.77859	
15	0.140	268.09702	172.55968	192.28978	268.98785	169.44926	56.77854	
16	0.150	268.09702	172.55968	192.28978	268.98782	169.44923	56.77858	
17	0.160	268.09702	172.55968	192.28978	268.98773	169.44916	56.77869	
18	0.170	268.09702	172.55968	192.28978	268.98764	169.44907	56.77884	
19	0.180	268.09702	172.55968	192.28978	268.98755	169.44897	56.77897	
20	0.190	268.09702	172.55968	192.28978	268.98746	169.44891	56.77908	
21	0.200	268.09702	172.55968	192.28978	268.98740	169.44885	56.77915	
22	0.210	268.09702	172.55968	192.28978	268.98737	169.44882	56.77919	
23	0.220	268.09702	172.55968	192.28976	268.98734	169.44881	56.77921	
24	0.230	268.09702	172.55968	192.28976	268.98734	169.44881	56.77921	
25	0.240	268.09702	172.55968	192.28976	268.98737	169.44882	56.77919	
26	0.250	268.09702	172.55968	192.28978	268.98740	169.44885	56.77914	
27	0.260	268.09702	172.55968	192.28978	268.98743	169.44890	56.77908	
28	0.270	268.09702	172.55968	192.28978	268.98749	169.44894	56.77901	
29	0.280	268.09702	172.55968	192.28978	268.98755	169.44899	56.77893	
30	0.290	268.09702	172.55968	192.28978	268.98761	169.44905	56.77885	
31	0.300	268.09702	172.55968	192.28976	268.98770	169.44911	56.77876	
32	0.310	268.09702	172.55968	192.28976	268.98779	169.44919	56.77864	
33	0.320	268.09702	172.55968	192.28976	268.98792	169.44930	56.77847	
34	0.330	268.09702	172.55968	192.28978	268.98813	169.44946	56.77822	
35	0.340	268.09702	172.55968	192.28978	268.98834	169.44966	56.77792	
36	0.350	268.09702	172.55968	192.28978	268.98856	169.44984	56.77764	
37	0.360	268.09702	172.55968	192.28978	268.98874	169.45000	56.77743	
38	0.370	268.09702	172.55968	192.28978	268.98874	169.45001	56.77740	
39	0.380	268.09702	172.55968	192.28978	268.98862	169.44989	56.77758	
40	0.390	268.09702	172.55968	192.28979	268.98834	169.44966	56.77792	
41	0.400	268.09702	172.55968	192.28979	268.98804	169.44942	56.77829	
42	0.410	268.09702	172.55968	192.28979	268.98776	169.44919	56.77863	
43	0.420	268.09702	172.55968	192.28979	268.98758	169.44902	56.77888	
44	0.430	268.09702	172.55968	192.28979	268.98743	169.44890	56.77906	
45	0.440	268.09702	172.55968	192.28979	268.98734	169.44882	56.77917	
46	0.450	268.09702	172.55968	192.28979	268.98730	169.44879	56.77922	
47	0.460	268.09702	172.55968	192.28978	268.98730	169.44878	56.77924	
48	0.470	268.09702	172.55968	192.28978	268.98730	169.44878	56.77924	
49	0.480	268.09702	172.55968	192.28978	268.98730	169.44879	56.77923	
50	0.490	268.09702	172.55968	192.28978	268.98734	169.44879	56.77922	
51	0.500	268.09702	172.55968	192.28978	268.98734	169.44881	56.77921	
52	0.510	268.09702	172.55968	192.28978	268.98734	169.44881	56.77921	
53	0.520	268.09702	172.55968	192.28976	268.98734	169.44881	56.77921	
54	0.530	268.09702	172.55968	192.28976	268.98734	169.44881	56.77921	
55	0.540	268.09702	172.55968	192.28976	268.98734	169.44882	56.77919	
56	0.550	268.09702	172.55968	192.28978	268.98737	169.44884	56.77916	
57	0.560	268.09702	172.55968	192.28978	268.98743	169.44888	56.77909	
58	0.570	268.09702	172.55968	192.28978	268.98749	169.44894	56.77899	
59	0.580	268.09702	172.55968	192.28978	268.98761	169.44905	56.77885	
60	0.590	268.09702	172.55968	192.28978	268.98776	169.44917	56.77867	
61	0.600	268.09702	172.55968	192.28978	268.98792	169.44930	56.77848	
62	0.610	268.09702	172.55968	192.28978	268.98804	169.44942	56.77831	
63	0.620	268.09702	172.55968	192.28978	268.98810	169.44946	56.77824	
64	0.630	268.09702	172.55968	192.28978	268.98807	169.44942	56.77830	
65	0.640	268.09702	172.55968	192.28978	268.98795	169.44931	56.77845	
66	0.650	268.09702	172.55968	192.28978	268.98782	169.44920	56.77861	
67	0.660	268.09702	172.55968	192.28978	268.98770	169.44913	56.77873	
68	0.670	268.09702	172.55968	192.28978	268.98767	169.44910	56.77879	
69	0.680	268.09702	172.55968	192.28978	268.98767	169.44911	56.77877	
70	0.690	268.09702	172.55968	192.28976	268.98773	169.44916	56.77870	
71	0.700	268.09702	172.55968	192.28978	268.98779	169.44920	56.77862	
72	0.710	268.09702	172.55968	192.28978	268.98782	169.44923	56.77858	
73	0.720	268.09702	172.55968	192.28978	268.98779	169.44920	56.77863	
74	0.730	268.09702	172.55968	192.28978	268.98770	169.44913	56.77872	
75	0.740	268.09702	172.55968	192.28978	268.98761	169.44905	56.77885	
76	0.750	268.09702	172.55968	192.28978	268.98752	169.44897	56.77896	
77	0.760	268.09702	172.55968	192.28976	268.98746	169.44891	56.77905	
78	0.770	268.09702	172.55968	192.28976	268.98740	169.44887	56.77912	
79	0.780	268.09702	172.55968	192.28976	268.98737	169.44884	56.77916	
80	0.790	268.09702	172.55968	192.28976	268.98737	169.44882	56.77919	
81	0.800	268.09702	172.55968	192.28978	268.98734	169.44882	56.77920	
82	0.810	268.09702	172.55968	192.28978	268.98734	169.44882	56.77919	
83	0.820	268.09702	172.55968	192.28978	268.98737	169.44882	56.77919	
84	0.830	268.09702	172.55968	192.28978	268.98737	169.44882	56.77918	
85	0.840	268.09702	172.55968	192.28978	268.98737	169.44882	56.77918	
86	0.850	268.09702	172.55968	192.28978	268.98737	169.44884	56.77917	
87	0.860	268.09702	172.55968	192.28978	268.98737	169.44884	56.77917	
88	0.870	268.09702	172.55968	192.28978	268.98737	169.44884	56.77916	
89	0.880	268.09702	172.55968	192.28978	268.98737	169.44884	56.77916	
90	0.890	268.09702	172.55968	192.28978	268.98737	169.44884	56.77916	
91	0.900	268.09702	172.55968	192.28978	268.98737	169.44884	56.77916	
92	0.910	268.09702	172.55968	192.28978	268.98737	169.44884	56.77917	
93	0.920	268.09702	172.55968	192.28978	268.98737	169.44884	56.77916	
94	0.930	268.09702	172.55968	192.28978	268.98737	169.44884	56.77916	
95	0.940	268.09702	172.55968	192.28978	268.98737	169.44884	56.77916	
96	0.950	268.09702	172.55968	192.28978	268.98737	169.44884	56.77916	
97	0.960	268.09702	172.55968	192.28978	268.98737	169.44884	56.77916	
98	0.970	268.09702	172.55968	192.28976	268.98737	169.44884	56.77917	
99	0.980	268.09702	172.55968	192.28976	268.98737	169.44884	56.77917	
100	0.990	268.09702	172.55968	192.28976	268.98737	169.44884	56.77917	
101	1.000	268.09702	172.55968	192.28976	268.98737	169.44884	56.77917	
102	1.010	268.09702	172.55968	192.28976	268.98737	169.44884	56.77918	
103	1.020	268.09702	172.55968	192.28975	268.98737	169.44884	56.77918	
104	1.030	268.09702	172.55968	192.28975	268.98737	169.44884	56.77917	
105	1.040	268.09702	172.55968	192.28973	268.98737	169.44884	56.77917	
106	1.050	268.09698	172.55968	192.28973	268.98737	169.44884	56.77915	
107	1.060	268.09695	172.55968	192.28973	268.98734	169.44884	56.77912	
108	1.070	268.09692	172.55966	192.28973	268.98734	169.44882	56.77908	
109	1.080	268.09686	172.55966	192.28976	268.98730	169.44881	56.77904	
110	1.090	268.09680	172.55965	192.28979	268.98727	169.44879	56.77900	
111	1.100	268.09674	172.55963	192.28987	268.98724	169.44876	56.77896	
112	1.110	268.09674	172.55963	192.28996	268.98724	169.44873	56.77895	
113	1.120	268.09677	172.55962	192.29010	268.98727	169.44870	56.77899	
114	1.130	268.09692	172.55963	192.29024	268.98734	169.44870	56.77913	
115	1.140	268.09729	172.55968	192.29037	268.98752	169.44875	56.77941	
116	1.150	268.09787	172.55974	192.29044	268.98782	169.44885	56.77988	
117	1.160	268.09875	172.55988	192.29033	268.98825	169.44905	56.78055	
118	1.170	268.09988	172.56004	192.28998	268.98880	169.44937	56.78142	
119	1.180	268.10117	172.56027	192.28920	268.98941	169.44983	56.78239	
120	1.190	268.10236	172.56053	192.28789	268.98996	169.45041	56.78325	
121	1.200	268.10294	172.56075	192.28593	268.99017	169.45102	56.78362	
122	1.210	268.10220	172.56084	192.28337	268.98972	169.45151	56.78291	
123	1.220	268.09909	172.56062	192.28043	268.98804	169.45160	56.78035	
124	1.230	268.09241	172.55995	192.27769	268.98459	169.45090	56.77500	
125	1.240	268.08081	172.55870	192.27625	268.97876	169.44890	56.76594	
126	1.250	268.06326	172.55707	192.27780	268.97021	169.44496	56.75256	
127	1.260	268.03946	172.55548	192.28473	268.95905	169.43858	56.73506	
128	1.270	268.01047	172.55452	192.30011	268.94623	169.42946	56.71500	
129	1.280	267.97891	172.55458	192.32753	268.93326	169.41789	56.69552	
130	1.290	267.94907	172.55553	192.37067	268.92136	169.40480	56.68114	
131	1.300	267.92639	172.55638	192.43262	268.91119	169.39139	56.67742	
132	1.310	267.91605	172.55554	192.51561	268.90280	169.37839	56.69035	
133	1.320	267.92062	172.55174	192.62137	268.89578	169.36588	56.72594	
134	1.330	267.93939	172.54445	192.75121	268.88901	169.35315	56.78975	
135	1.340	267.96866	172.53320	192.90550	268.88077	169.33910	56.88641	
136	1.350	268.00317	172.51709	193.08337	268.86975	169.32303	57.01903	
137	1.360	268.03793	172.49561	193.28378	268.85574	169.30533	57.18913	
138	1.370	268.06906	172.47025	193.50720	268.83908	169.28795	57.39671	
139	1.380	268.09393	172.44540	193.75661	268.82123	169.27448	57.64075	
140	1.390	268.11063	172.42746	194.03624	268.80621	169.26918	57.92015	
141	1.400	268.11890	172.42195	194.34901	268.79901	169.27559	58.23479	
142	1.410	268.12131	172.43069	194.69418	268.80106	169.29665	58.58595	
143	1.420	268.12222	172.45074	195.06776	268.80756	169.33611	58.97475	
144	1.430	268.12521	172.47588	195.46449	268.81073	169.39757	59.39887	
